<svg width="32" height="32" viewBox="0 0 32 32" fill="none" xmlns="http://www.w3.org/2000/svg">
<path d="M22.2479 3.35869V12.6903C22.2604 12.8978 22.2287 13.1055 22.1549 13.2999C22.0812 13.4942 21.9671 13.6707 21.8201 13.8177C21.6731 13.9647 21.4966 14.0788 21.3023 14.1526C21.1079 14.2263 20.9001 14.258 20.6926 14.2455L11.3611 14.2455C11.1536 14.258 10.9458 14.2263 10.7515 14.1526C10.5571 14.0788 10.3806 13.9647 10.2336 13.8177C10.0867 13.6707 9.97252 13.4942 9.89877 13.2999C9.82503 13.1055 9.79334 12.8978 9.80581 12.6903L9.80581 3.35869C9.79334 3.1512 9.82503 2.94342 9.89877 2.74907C9.97252 2.55473 10.0867 2.37824 10.2336 2.23125C10.3806 2.08427 10.5571 1.97014 10.7515 1.89639C10.9458 1.82264 11.1536 1.79096 11.3611 1.80343H20.6926C21.1051 1.80343 21.5007 1.96729 21.7924 2.25896C22.084 2.55062 22.2479 2.94621 22.2479 3.35869ZM19.1374 4.91395H12.9163V11.135H19.1374V4.91395ZM12.8895 29.7981H3.55791C3.35042 29.8106 3.14264 29.7789 2.94829 29.7052C2.75395 29.6314 2.57746 29.5173 2.43047 29.3703C2.28349 29.2233 2.16935 29.0468 2.09561 28.8525C2.02186 28.6581 1.99018 28.4504 2.00265 28.2429L2.00265 18.9113C1.99018 18.7038 2.02186 18.496 2.09561 18.3017C2.16935 18.1073 2.28349 17.9309 2.43047 17.7839C2.57746 17.6369 2.75395 17.5227 2.94829 17.449C3.14264 17.3753 3.35042 17.3436 3.55791 17.356H12.8895C13.097 17.3436 13.3047 17.3753 13.4991 17.449C13.6934 17.5227 13.8699 17.6369 14.0169 17.7839C14.1639 17.9309 14.278 18.1073 14.3518 18.3017C14.4255 18.496 14.4572 18.7038 14.4447 18.9113V28.2429C14.4572 28.4504 14.4255 28.6581 14.3518 28.8525C14.278 29.0468 14.1639 29.2233 14.0169 29.3703C13.8699 29.5173 13.6934 29.6314 13.4991 29.7052C13.3047 29.7789 13.097 29.8106 12.8895 29.7981ZM11.3342 20.4666H5.11317V26.6876H11.3342V20.4666ZM19.1105 17.356H28.4421C28.6496 17.3436 28.8574 17.3753 29.0517 17.449C29.2461 17.5227 29.4225 17.6369 29.5695 17.7839C29.7165 17.9309 29.8306 18.1073 29.9044 18.3017C29.9781 18.496 30.0098 18.7038 29.9974 18.9113V28.2429C30.0098 28.4504 29.9781 28.6581 29.9044 28.8525C29.8306 29.0468 29.7165 29.2233 29.5695 29.3703C29.4225 29.5173 29.2461 29.6314 29.0517 29.7052C28.8574 29.7789 28.6496 29.8106 28.4421 29.7981H19.1105C18.903 29.8106 18.6952 29.7789 18.5009 29.7052C18.3066 29.6314 18.1301 29.5173 17.9831 29.3703C17.8361 29.2233 17.722 29.0468 17.6482 28.8525C17.5745 28.6581 17.5428 28.4504 17.5553 28.2429V18.9113C17.5553 18.4988 17.7191 18.1032 18.0108 17.8116C18.3025 17.5199 18.698 17.356 19.1105 17.356ZM20.6658 26.6876H26.8868V20.4666H20.6658V26.6876Z" fill="white"/>
<rect x="12" y="3.80078" width="8" height="8" fill="white"/>
<rect x="4" y="19.8008" width="8" height="8" fill="white"/>
<rect x="20" y="19.8008" width="8" height="8" fill="white"/>
</svg>
